<?xml version="1.0" encoding="UTF-8"?>
<svg width="160" height="40" viewBox="0 0 160 40" fill="none" xmlns="http://www.w3.org/2000/svg">
    <!-- Fond dégradé orange -->
    <rect width="160" height="40" rx="8" fill="url(#gradient)"/>
    <defs>
        <linearGradient id="gradient" x1="0%" y1="0%" x2="100%" y2="0%">
            <stop offset="0%" stop-color="#FFA500"/>
            <stop offset="100%" stop-color="#FF6B00"/>
        </linearGradient>
    </defs>

    <!-- Élément créatif : Silhouette de mannequin -->
    <path d="M30 15C30 10 35 8 40 10L45 8C50 5 55 10 55 15L53 25C53 30 48 32 43 30L38 32C33 35 28 30 28 25L30 15Z" 
          fill="none" stroke="white" stroke-width="1.5" stroke-linecap="round"/>

    <!-- Icônes mode intégrées dans la silhouette -->
    <!-- T-shirt stylisé -->
    <path d="M38 12L42 10L46 12L44 16L42 20L40 16L38 12Z" fill="white" stroke="#FF6B00" stroke-width="0.5"/>
    <!-- Sac à main design -->
    <path d="M43 22C43 22 45 22 47 24L47 26C47 26 45 28 43 28C41 28 39 26 39 24L39 22C39 22 41 22 43 22Z" 
          fill="white" stroke="#FF6B00" stroke-width="0.5"/>
    <!-- Étoiles décoratives -->
    <path d="M50 8L51 11L54 11L52 13L53 16L50 14L47 16L48 13L46 11L49 11L50 8Z" fill="white"/>
    <path d="M60 28L61 31L64 31L62 33L63 36L60 34L57 36L58 33L56 31L59 31L60 28Z" fill="white"/>

    <!-- Texte artistique avec ombre portée -->
    <text x="80" y="28" font-family="'Poppins', sans-serif" font-size="14" font-weight="700" fill="white" 
          style="text-shadow: 2px 2px 4px rgba(0,0,0,0.3);letter-spacing:1px">
        GENIE<span style="fill:#FFE500">JUNIOR</span>
    </text>

    <!-- Effet de points connectés (style réseau moderne) -->
    <circle cx="70" cy="15" r="1.5" fill="white"/>
    <circle cx="75" cy="20" r="1.5" fill="white"/>
    <circle cx="80" cy="15" r="1.5" fill="white"/>
    <path d="M70 15L75 20L80 15" stroke="white" stroke-width="0.7" stroke-dasharray="2 2"/>
</svg>